<svg xmlns="http://www.w3.org/2000/svg" width="18" height="11" viewBox="0 0 18 11"><g><g><path fill="#686868" d="M8.323 1.172c.343.467.513 1.028.513 1.679 0 .673-.172 1.211-.518 1.62-.193.23-.477.437-.853.626.57.205 1.003.527 1.292.972.29.443.435.98.435 1.611 0 .653-.164 1.238-.497 1.755a3.093 3.093 0 0 1-2.057 1.416c-.486.1-1.013.15-1.58.15H.012V0h5.41c1.363.02 2.33.409 2.9 1.17zm-5.728.738v2.427h2.371c.487 0 .88-.091 1.184-.273.303-.182.454-.504.454-.967 0-.512-.2-.851-.602-1.015-.344-.114-.786-.172-1.321-.172zm0 4.248V9.09h2.368c.486 0 .863-.063 1.134-.194.49-.24.736-.696.736-1.373 0-.572-.239-.967-.713-1.178-.266-.121-.64-.182-1.12-.187zM15.92 2.937c.559.246 1.02.634 1.385 1.167.33.469.541 1.01.64 1.63.055.36.079.882.068 1.564h-5.84c.031.792.31 1.345.838 1.663.317.198.704.296 1.156.296.477 0 .866-.12 1.164-.362.163-.13.307-.311.432-.54h2.14c-.055.467-.313.941-.777 1.424-.718.765-1.724 1.15-3.017 1.15-1.069 0-2.01-.324-2.826-.97-.816-.648-1.224-1.699-1.224-3.157 0-1.366.368-2.413 1.104-3.141.739-.73 1.694-1.093 2.87-1.093.698 0 1.327.123 1.887.369zM12.78 4.718c-.298.3-.484.706-.56 1.22h3.615c-.039-.547-.226-.962-.56-1.244-.333-.285-.748-.427-1.244-.427-.539 0-.956.152-1.25.451zM16 1h-4V0h4z"/></g></g></svg>