<svg xmlns="http://www.w3.org/2000/svg" width="15" height="15" viewBox="0 0 15 15"><g><g><path fill="#686868" d="M7.19 14.371c-3.965 0-7.19-3.225-7.19-7.19C0 3.219 3.225-.007 7.19-.007c3.964 0 7.189 3.226 7.189 7.19 0 3.964-3.225 7.19-7.19 7.19zm6.062-6.205c-.21-.066-1.9-.57-3.825-.262a26.527 26.527 0 0 1 1.193 4.378 6.151 6.151 0 0 0 2.632-4.116zm-3.664 4.678a25.524 25.524 0 0 0-1.31-4.657l-.04.014C4.774 9.408 3.53 11.81 3.42 12.036a6.11 6.11 0 0 0 3.77 1.296 6.11 6.11 0 0 0 2.398-.488zm-6.96-1.547c.138-.238 1.823-3.028 4.99-4.052.08-.026.161-.05.243-.073a20.588 20.588 0 0 0-.498-1.042c-3.067.918-6.043.88-6.312.874a6.116 6.116 0 0 0 1.576 4.294zm-1.45-5.363c.275.003 2.805.014 5.677-.749a39.18 39.18 0 0 0-2.277-3.551 6.164 6.164 0 0 0-3.4 4.3zM5.75 1.22a32.78 32.78 0 0 1 2.291 3.595c2.184-.818 3.109-2.06 3.219-2.218A6.116 6.116 0 0 0 5.75 1.22zm6.193 2.087c-.13.175-1.159 1.494-3.43 2.421a18.898 18.898 0 0 1 .54 1.207c2.044-.257 4.074.154 4.276.197a6.111 6.111 0 0 0-1.386-3.825z"/></g></g></svg>