<svg xmlns="http://www.w3.org/2000/svg" width="21" height="19" viewBox="0 0 21 19"><defs><mask id="6awzb" width="2" height="2" x="-1" y="-1"><path fill="#fff" d="M3 4h15v12H3z"/><path d="M17.235 5.335c-.23.127-.92.38-1.565.444.413-.223 1.025-.952 1.176-1.532-.397.254-1.31.623-1.76.623v.002a2.821 2.821 0 0 0-4.788 2.577c-2.113-.054-4.583-1.113-5.975-2.926-.855 1.48-.115 3.126.855 3.726-.331.026-.944-.037-1.232-.318-.02.983.454 2.285 2.176 2.756-.332.18-.918.128-1.174.09.09.83 1.252 1.915 2.52 1.915-.451.522-1.995 1.473-3.905 1.17a8.467 8.467 0 0 0 4.412 1.247c4.55 0 8.084-3.688 7.894-8.237l-.001-.016.001-.035-.001-.043c.414-.282.97-.783 1.367-1.443z"/></mask><filter id="6awza" width="47" height="44" x="-13" y="-12" filterUnits="userSpaceOnUse"><feOffset in="SourceGraphic" result="FeOffset1058Out"/><feGaussianBlur in="FeOffset1058Out" result="FeGaussianBlur1059Out" stdDeviation="2.4 2.4"/></filter></defs><g><g><g filter="url(#6awza)"><path fill="none" d="M17.235 5.335c-.23.127-.92.38-1.565.444.413-.223 1.025-.952 1.176-1.532-.397.254-1.31.623-1.76.623v.002a2.821 2.821 0 0 0-4.788 2.577c-2.113-.054-4.583-1.113-5.975-2.926-.855 1.48-.115 3.126.855 3.726-.331.026-.944-.037-1.232-.318-.02.983.454 2.285 2.176 2.756-.332.18-.918.128-1.174.09.09.83 1.252 1.915 2.52 1.915-.451.522-1.995 1.473-3.905 1.17a8.467 8.467 0 0 0 4.412 1.247c4.55 0 8.084-3.688 7.894-8.237l-.001-.016.001-.035-.001-.043c.414-.282.97-.783 1.367-1.443z" mask="url(&quot;#6awzb&quot;)"/><path fill="#fff" fill-opacity=".3" d="M17.235 5.335c-.23.127-.92.38-1.565.444.413-.223 1.025-.952 1.176-1.532-.397.254-1.31.623-1.76.623v.002a2.821 2.821 0 0 0-4.788 2.577c-2.113-.054-4.583-1.113-5.975-2.926-.855 1.48-.115 3.126.855 3.726-.331.026-.944-.037-1.232-.318-.02.983.454 2.285 2.176 2.756-.332.18-.918.128-1.174.09.09.83 1.252 1.915 2.52 1.915-.451.522-1.995 1.473-3.905 1.17a8.467 8.467 0 0 0 4.412 1.247c4.55 0 8.084-3.688 7.894-8.237l-.001-.016.001-.035-.001-.043c.414-.282.97-.783 1.367-1.443z"/></g><g filter="url(#6awza)"><path fill="none" d="M17.235 5.335c-.23.127-.92.38-1.565.444.413-.223 1.025-.952 1.176-1.532-.397.254-1.31.623-1.76.623v.002a2.821 2.821 0 0 0-4.788 2.577c-2.113-.054-4.583-1.113-5.975-2.926-.855 1.48-.115 3.126.855 3.726-.331.026-.944-.037-1.232-.318-.02.983.454 2.285 2.176 2.756-.332.18-.918.128-1.174.09.09.83 1.252 1.915 2.52 1.915-.451.522-1.995 1.473-3.905 1.17a8.467 8.467 0 0 0 4.412 1.247c4.55 0 8.084-3.688 7.894-8.237l-.001-.016.001-.035-.001-.043c.414-.282.97-.783 1.367-1.443z" mask="url(&quot;#6awzb&quot;)"/><path fill="#fff" fill-opacity=".3" d="M17.235 5.335c-.23.127-.92.38-1.565.444.413-.223 1.025-.952 1.176-1.532-.397.254-1.31.623-1.76.623v.002a2.821 2.821 0 0 0-4.788 2.577c-2.113-.054-4.583-1.113-5.975-2.926-.855 1.48-.115 3.126.855 3.726-.331.026-.944-.037-1.232-.318-.02.983.454 2.285 2.176 2.756-.332.18-.918.128-1.174.09.09.83 1.252 1.915 2.52 1.915-.451.522-1.995 1.473-3.905 1.17a8.467 8.467 0 0 0 4.412 1.247c4.55 0 8.084-3.688 7.894-8.237l-.001-.016.001-.035-.001-.043c.414-.282.97-.783 1.367-1.443z"/></g><path fill="#686868" d="M17.235 5.335c-.23.127-.92.38-1.565.444.413-.223 1.025-.952 1.176-1.532-.397.254-1.31.623-1.76.623v.002a2.821 2.821 0 0 0-4.788 2.577c-2.113-.054-4.583-1.113-5.975-2.926-.855 1.48-.115 3.126.855 3.726-.331.026-.944-.037-1.232-.318-.02.983.454 2.285 2.176 2.756-.332.18-.918.128-1.174.09.09.83 1.252 1.915 2.52 1.915-.451.522-1.995 1.473-3.905 1.17a8.467 8.467 0 0 0 4.412 1.247c4.55 0 8.084-3.688 7.894-8.237l-.001-.016.001-.035-.001-.043c.414-.282.97-.783 1.367-1.443z"/></g></g></svg>